<?xml version="1.0" encoding="UTF-8" standalone="no"?>
<!DOCTYPE svg PUBLIC "-//W3C//DTD SVG 1.1//EN"
 "http://www.w3.org/Graphics/SVG/1.1/DTD/svg11.dtd">
<!-- Generated by graphviz version 2.43.0 (0)
 -->
<!-- Title: %3 Pages: 1 -->
<svg width="474pt" height="184pt"
 viewBox="0.00 0.00 474.00 184.00" xmlns="http://www.w3.org/2000/svg" xmlns:xlink="http://www.w3.org/1999/xlink">
<g id="graph0" class="graph" transform="scale(1 1) rotate(0) translate(4 180)">
<title>%3</title>
<polygon fill="#2b2b2b" stroke="transparent" points="-4,4 -4,-180 470,-180 470,4 -4,4"/>
<g id="clust1" class="cluster">
<title>cluster_database</title>
<path fill="#2b2b2b" stroke="black" d="M96,-92C96,-92 446,-92 446,-92 452,-92 458,-98 458,-104 458,-104 458,-156 458,-156 458,-162 452,-168 446,-168 446,-168 96,-168 96,-168 90,-168 84,-162 84,-156 84,-156 84,-104 84,-104 84,-98 90,-92 96,-92"/>
<text text-anchor="middle" x="271" y="-152.8" font-family="Times,serif" font-size="14.00" fill="white">Database</text>
</g>
<g id="clust2" class="cluster">
<title>cluster_gf</title>
<path fill="#2b2b2b" stroke="black" d="M20,-8C20,-8 316,-8 316,-8 322,-8 328,-14 328,-20 328,-20 328,-72 328,-72 328,-78 322,-84 316,-84 316,-84 20,-84 20,-84 14,-84 8,-78 8,-72 8,-72 8,-20 8,-20 8,-14 14,-8 20,-8"/>
<text text-anchor="middle" x="168" y="-68.8" font-family="Times,serif" font-size="14.00" fill="white">Grafana</text>
</g>
<!-- Transactions -->
<g id="node1" class="node">
<title>Transactions</title>
<polygon fill="#404040" stroke="black" points="342,-100.5 342,-136.5 450,-136.5 450,-100.5 342,-100.5"/>
<text text-anchor="middle" x="396" y="-114.8" font-family="Times,serif" font-size="14.00" fill="white">Transactions</text>
</g>
<!-- Fills -->
<g id="node2" class="node">
<title>Fills</title>
<polygon fill="#404040" stroke="black" points="172,-100.5 172,-136.5 226,-136.5 226,-100.5 172,-100.5"/>
<text text-anchor="middle" x="199" y="-114.8" font-family="Times,serif" font-size="14.00" fill="white">Fills</text>
</g>
<!-- PNL -->
<g id="node6" class="node">
<title>PNL</title>
<polygon fill="#404040" stroke="black" points="174,-16.5 174,-52.5 228,-52.5 228,-16.5 174,-16.5"/>
<text text-anchor="middle" x="201" y="-30.8" font-family="Times,serif" font-size="14.00" fill="white">PNL</text>
</g>
<!-- Fills&#45;&gt;PNL -->
<g id="edge1" class="edge">
<title>Fills&#45;&gt;PNL</title>
<path fill="none" stroke="white" d="M199.42,-100.11C199.69,-89.27 200.03,-75.1 200.33,-62.79"/>
<polygon fill="white" stroke="white" points="203.84,-62.67 200.58,-52.58 196.84,-62.5 203.84,-62.67"/>
</g>
<!-- Balances -->
<g id="node3" class="node">
<title>Balances</title>
<polygon fill="#404040" stroke="black" points="244,-100.5 244,-136.5 324,-136.5 324,-100.5 244,-100.5"/>
<text text-anchor="middle" x="284" y="-114.8" font-family="Times,serif" font-size="14.00" fill="white">Balances</text>
</g>
<!-- Holding -->
<g id="node5" class="node">
<title>Holding</title>
<polygon fill="#404040" stroke="black" points="246.5,-16.5 246.5,-52.5 319.5,-52.5 319.5,-16.5 246.5,-16.5"/>
<text text-anchor="middle" x="283" y="-30.8" font-family="Times,serif" font-size="14.00" fill="white">Holding</text>
</g>
<!-- Balances&#45;&gt;Holding -->
<g id="edge2" class="edge">
<title>Balances&#45;&gt;Holding</title>
<path fill="none" stroke="white" d="M283.79,-100.11C283.66,-89.27 283.48,-75.1 283.33,-62.79"/>
<polygon fill="white" stroke="white" points="286.83,-62.54 283.21,-52.58 279.83,-62.63 286.83,-62.54"/>
</g>
<!-- Prices -->
<g id="node4" class="node">
<title>Prices</title>
<polygon fill="#404040" stroke="black" points="92.5,-100.5 92.5,-136.5 153.5,-136.5 153.5,-100.5 92.5,-100.5"/>
<text text-anchor="middle" x="123" y="-114.8" font-family="Times,serif" font-size="14.00" fill="white">Prices</text>
</g>
<!-- Prices&#45;&gt;PNL -->
<g id="edge3" class="edge">
<title>Prices&#45;&gt;PNL</title>
<path fill="none" stroke="white" d="M146.59,-100.43C152.86,-95.44 159.43,-89.77 165,-84 171.7,-77.06 178.24,-68.85 183.86,-61.17"/>
<polygon fill="white" stroke="white" points="187.07,-62.69 189.99,-52.51 181.36,-58.64 187.07,-62.69"/>
</g>
<!-- Margin -->
<g id="node7" class="node">
<title>Margin</title>
<polygon fill="#404040" stroke="black" points="88,-16.5 88,-52.5 156,-52.5 156,-16.5 88,-16.5"/>
<text text-anchor="middle" x="122" y="-30.8" font-family="Times,serif" font-size="14.00" fill="white">Margin</text>
</g>
<!-- Prices&#45;&gt;Margin -->
<g id="edge4" class="edge">
<title>Prices&#45;&gt;Margin</title>
<path fill="none" stroke="white" d="M122.79,-100.11C122.66,-89.27 122.48,-75.1 122.33,-62.79"/>
<polygon fill="white" stroke="white" points="125.83,-62.54 122.21,-52.58 118.83,-62.63 125.83,-62.54"/>
</g>
<!-- Ping -->
<g id="node8" class="node">
<title>Ping</title>
<polygon fill="#404040" stroke="black" points="16,-16.5 16,-52.5 70,-52.5 70,-16.5 16,-16.5"/>
<text text-anchor="middle" x="43" y="-30.8" font-family="Times,serif" font-size="14.00" fill="white">Ping</text>
</g>
</g>
</svg>
